<svg xmlns="http://www.w3.org/2000/svg" viewBox="0 0 128 128">
  <!-- Shadow for depth -->
  <ellipse cx="64" cy="118" rx="20" ry="6" fill="#64748b" opacity="0.2"/>

  <!-- Pin body - refined teardrop shape -->
  <path d="M64 6 C32 6 8 30 8 58 C8 78 24 98 64 118 C104 98 120 78 120 58 C120 30 96 6 64 6 Z" fill="#64748b"/>

  <!-- Inner circle - crisp white -->
  <circle cx="64" cy="52" r="34" fill="#ffffff"/>

  <!-- House - refined geometric -->
  <g fill="#64748b">
    <!-- Roof -->
    <path d="M64 28 L40 48 L42 50 L64 32 L86 50 L88 48 Z"/>
    <!-- House body -->
    <rect x="44" y="50" width="40" height="28" rx="2"/>
    <!-- Door -->
    <rect x="58" y="58" width="12" height="20" rx="1" fill="#ffffff"/>
    <!-- Window left -->
    <rect x="48" y="56" width="8" height="8" rx="1" fill="#ffffff"/>
    <!-- Window right -->
    <rect x="72" y="56" width="8" height="8" rx="1" fill="#ffffff"/>
  </g>
</svg>
